<svg width="48" viewBox="0 0 48 48" fill="none" xmlns="http://www.w3.org/2000/svg" class="ms-ds-0 me-ds-0 mt-ds-0 mb-ds-0"><rect width="48" height="48" rx="8" fill="#7132F5"></rect><g filter="url(#filter0_d_204_42)"><path d="M1.6875 11.4375C1.6875 6.36338 5.80088 2.25 10.875 2.25H37.125C42.1991 2.25 46.3125 6.36338 46.3125 11.4375V36.5625C46.3125 41.6366 42.1991 45.75 37.125 45.75H10.875C5.80088 45.75 1.6875 41.6366 1.6875 36.5625V11.4375Z" fill="#BEA1F9"></path></g><g filter="url(#filter1_dd_204_42)"><mask id="mask0_204_42" mask="alpha" maskUnits="userSpaceOnUse" x="-5" y="5" width="58" height="43"><path fill-rule="evenodd" clip-rule="evenodd" d="M24 9.1875C26.0234 9.1875 27.7065 7.73068 28.0577 5.80873C28.1321 5.40126 28.4608 5.0625 28.875 5.0625H36.9234C39.9873 5.0625 41.9177 6.68709 43.7189 8.48836C45.0274 9.79688 46.8281 9.79688 49.0611 9.79688H51.375C51.7892 9.79688 52.125 10.1327 52.125 10.5469V47.25C52.125 47.6642 51.7892 48 51.375 48H24H-3.375C-3.78921 48 -4.125 47.6642 -4.125 47.25V10.5469C-4.125 10.1327 -3.78921 9.79688 -3.375 9.79688H-1.0611C1.17188 9.79688 2.97256 9.79688 4.28108 8.48836C6.08235 6.68709 8.01274 5.0625 11.0766 5.0625H19.125C19.5392 5.0625 19.8679 5.40126 19.9423 5.80873C20.2935 7.73068 21.9766 9.1875 24 9.1875Z" fill="white"></path></mask><g mask="url(#mask0_204_42)"><path d="M48 40C48 44.4183 44.4183 48 40 48H8C3.58172 48 0 44.4183 0 40V5.0625H48V40Z" fill="url(#paint0_linear_204_42)"></path><path d="M48 40C48 44.4183 44.4183 48 40 48H8C3.58172 48 0 44.4183 0 40V5.0625H48V40Z" fill="url(#paint1_radial_204_42)" fill-opacity="0.8"></path><path d="M48 40C48 44.4183 44.4183 48 40 48H8C3.58172 48 0 44.4183 0 40V5.0625H48V40Z" fill="url(#paint2_radial_204_42)" fill-opacity="0.7"></path><path d="M48 40C48 44.4183 44.4183 48 40 48H8C3.58172 48 0 44.4183 0 40V5.0625H48V40Z" fill="url(#paint3_radial_204_42)" fill-opacity="0.5"></path><path d="M48 40C48 44.4183 44.4183 48 40 48H8C3.58172 48 0 44.4183 0 40V5.0625H48V40Z" fill="url(#paint4_radial_204_42)" fill-opacity="0.5"></path><path d="M48 40C48 44.4183 44.4183 48 40 48H8C3.58172 48 0 44.4183 0 40V5.0625H48V40Z" fill="url(#paint5_radial_204_42)" fill-opacity="0.5"></path><path d="M48 40C48 44.4183 44.4183 48 40 48H8C3.58172 48 0 44.4183 0 40V5.0625H48V40Z" fill="url(#paint6_radial_204_42)" fill-opacity="0.5"></path><path d="M48 40C48 44.4183 44.4183 48 40 48H8C3.58172 48 0 44.4183 0 40V5.0625H48V40Z" fill="url(#paint7_radial_204_42)" fill-opacity="0.5"></path><path d="M48 40C48 44.4183 44.4183 48 40 48H8C3.58172 48 0 44.4183 0 40V5.0625H48V40Z" fill="url(#paint8_radial_204_42)" fill-opacity="0.7"></path></g></g><path d="M24 9.32812C26.0925 9.32812 27.8328 7.82157 28.196 5.834C28.2611 5.47765 28.5435 5.20312 28.875 5.20312H36.9234C39.9275 5.20312 41.8227 6.79101 43.6195 8.5878C44.9693 9.93758 46.8237 9.93754 49.0243 9.9375H49.0611H51.375C51.7115 9.9375 51.9844 10.2103 51.9844 10.5469V51C51.9844 51.3365 51.7115 51.6094 51.375 51.6094H-3.375C-3.71155 51.6094 -3.98438 51.3365 -3.98438 51V10.5469C-3.98438 10.2103 -3.71155 9.9375 -3.375 9.9375H-1.0611H-1.02432C1.17631 9.93754 3.03074 9.93758 4.38051 8.5878C6.17731 6.79101 8.07249 5.20312 11.0766 5.20312H19.125C19.4565 5.20312 19.7389 5.47765 19.804 5.834C20.1672 7.82157 21.9075 9.32812 24 9.32812Z" stroke="white" stroke-opacity="0.4" stroke-width="0.28125"></path><path fill-rule="evenodd" clip-rule="evenodd" d="M10.5938 26.6734V32.4784C10.5938 33.5474 11.4487 34.4124 12.5 34.4124C13.5524 34.4124 14.4113 33.5474 14.4113 32.4784V26.6734C14.4113 25.6029 15.2618 24.7364 16.3187 24.7364C17.3718 24.7364 18.226 25.6029 18.226 26.6734V32.4784C18.226 33.5474 19.0809 34.4124 20.1333 34.4124C21.1894 34.4124 22.044 33.5474 22.044 32.4784V26.6734C22.044 25.6029 22.8981 24.7364 23.9509 24.7364C25.0081 24.7364 25.863 25.6029 25.863 26.6734V32.4784C25.863 33.5474 26.7176 34.4124 27.7689 34.4124C28.8213 34.4124 29.6762 33.5474 29.6762 32.4784V26.6734C29.6762 25.6029 30.5307 24.7364 31.5876 24.7364C32.6404 24.7364 33.4949 25.6029 33.4949 26.6734V32.4784C33.4949 33.5474 34.3498 34.4124 35.4052 34.4124C36.458 34.4124 37.3125 33.5474 37.3125 32.4784V26.6734C37.3125 19.1916 31.3299 13.125 23.9509 13.125C16.5723 13.125 10.5938 19.1916 10.5938 26.6734Z" fill="#7132F5"></path><defs><filter id="filter0_d_204_42" x="0.5625" y="0.9375" width="46.875" height="45.75" filterUnits="userSpaceOnUse" color-interpolation-filters="sRGB"><feFlood flood-opacity="0" result="BackgroundImageFix"></feFlood><feColorMatrix in="SourceAlpha" type="matrix" values="0 0 0 0 0 0 0 0 0 0 0 0 0 0 0 0 0 0 127 0" result="hardAlpha"></feColorMatrix><feOffset dy="-0.1875"></feOffset><feGaussianBlur stdDeviation="0.5625"></feGaussianBlur><feComposite in2="hardAlpha" operator="out"></feComposite><feColorMatrix type="matrix" values="0 0 0 0 0.168627 0 0 0 0 0.0784314 0 0 0 0 0.388235 0 0 0 0.16 0"></feColorMatrix><feBlend mode="normal" in2="BackgroundImageFix" result="effect1_dropShadow_204_42"></feBlend><feBlend mode="normal" in="SourceGraphic" in2="effect1_dropShadow_204_42" result="shape"></feBlend></filter><filter id="filter1_dd_204_42" x="-1.5" y="3.375" width="51" height="45.9375" filterUnits="userSpaceOnUse" color-interpolation-filters="sRGB"><feFlood flood-opacity="0" result="BackgroundImageFix"></feFlood><feColorMatrix in="SourceAlpha" type="matrix" values="0 0 0 0 0 0 0 0 0 0 0 0 0 0 0 0 0 0 127 0" result="hardAlpha"></feColorMatrix><feOffset dy="-0.1875"></feOffset><feGaussianBlur stdDeviation="0.75"></feGaussianBlur><feComposite in2="hardAlpha" operator="out"></feComposite><feColorMatrix type="matrix" values="0 0 0 0 0.168627 0 0 0 0 0.0784314 0 0 0 0 0.388235 0 0 0 0.16 0"></feColorMatrix><feBlend mode="normal" in2="BackgroundImageFix" result="effect1_dropShadow_204_42"></feBlend><feColorMatrix in="SourceAlpha" type="matrix" values="0 0 0 0 0 0 0 0 0 0 0 0 0 0 0 0 0 0 127 0" result="hardAlpha"></feColorMatrix><feMorphology radius="0.375" operator="erode" in="SourceAlpha" result="effect2_dropShadow_204_42"></feMorphology><feOffset dy="-0.1875"></feOffset><feGaussianBlur stdDeviation="0.75"></feGaussianBlur><feColorMatrix type="matrix" values="0 0 0 0 0.443137 0 0 0 0 0.196078 0 0 0 0 0.960784 0 0 0 0.32 0"></feColorMatrix><feBlend mode="normal" in2="effect1_dropShadow_204_42" result="effect2_dropShadow_204_42"></feBlend><feBlend mode="normal" in="SourceGraphic" in2="effect2_dropShadow_204_42" result="shape"></feBlend></filter><linearGradient id="paint0_linear_204_42" x1="48" y1="48" x2="-8.16786" y2="27.9926" gradientUnits="userSpaceOnUse"><stop stop-color="#F7D2FE"></stop><stop offset="1" stop-color="#C7E1FF"></stop></linearGradient><radialGradient id="paint1_radial_204_42" cx="0" cy="0" r="1" gradientUnits="userSpaceOnUse" gradientTransform="translate(20.2857 72.8291) rotate(-92.4617) scale(49.8909 40.9012)"><stop stop-color="#7132F5" stop-opacity="0.4"></stop><stop offset="1" stop-color="#7132F5" stop-opacity="0"></stop></radialGradient><radialGradient id="paint2_radial_204_42" cx="0" cy="0" r="1" gradientUnits="userSpaceOnUse" gradientTransform="translate(17.8571 67.2285) rotate(-90.6877) scale(47.6081 38.9828)"><stop offset="0.223789" stop-color="#7132F5" stop-opacity="0.4"></stop><stop offset="1" stop-color="#7132F5" stop-opacity="0"></stop></radialGradient><radialGradient id="paint3_radial_204_42" cx="0" cy="0" r="1" gradientUnits="userSpaceOnUse" gradientTransform="translate(8.14286 0.395374) rotate(64.5697) scale(21.2915 19.7072)"><stop offset="0.223789" stop-color="#7132F5" stop-opacity="0.4"></stop><stop offset="1" stop-color="#7132F5" stop-opacity="0"></stop></radialGradient><radialGradient id="paint4_radial_204_42" cx="0" cy="0" r="1" gradientUnits="userSpaceOnUse" gradientTransform="translate(41.1429 5.0625) rotate(139.223) scale(18.8651 21.714)"><stop stop-color="#F7D2FE"></stop><stop offset="1" stop-color="#F7D2FE" stop-opacity="0"></stop></radialGradient><radialGradient id="paint5_radial_204_42" cx="0" cy="0" r="1" gradientUnits="userSpaceOnUse" gradientTransform="translate(-2 48) rotate(-38.1472) scale(35.0591 23.1733)"><stop offset="0.3125" stop-color="#F7D2FE"></stop><stop offset="1" stop-color="#F7D2FE" stop-opacity="0"></stop></radialGradient><radialGradient id="paint6_radial_204_42" cx="0" cy="0" r="1" gradientUnits="userSpaceOnUse" gradientTransform="translate(8.79908e-07 48) rotate(-33.7807) scale(28.8749 19.7657)"><stop stop-color="#FFCAB1"></stop><stop offset="1" stop-color="#F7D2FE" stop-opacity="0"></stop></radialGradient><radialGradient id="paint7_radial_204_42" cx="0" cy="0" r="1" gradientUnits="userSpaceOnUse" gradientTransform="translate(26.2857 -3.15163) rotate(109.471) scale(31.2855 10.6741)"><stop stop-color="#C7E1FF"></stop><stop offset="1" stop-color="#C7E1FF" stop-opacity="0"></stop></radialGradient><radialGradient id="paint8_radial_204_42" cx="0" cy="0" r="1" gradientUnits="userSpaceOnUse" gradientTransform="translate(8.76316 48) rotate(-35.7867) scale(56.7386 26.1706)"><stop stop-color="#FFAF8A"></stop><stop offset="0.823984" stop-color="#FFE5B1" stop-opacity="0"></stop></radialGradient></defs></svg>