<svg width="36" height="36" viewBox="0 0 36 36" fill="none" xmlns="http://www.w3.org/2000/svg">
<rect width="36" height="36" fill="#F1EFFF"></rect>
<path fill-rule="evenodd" clip-rule="evenodd" d="M22.4788 16.3753C22.4788 15.8921 22.8706 15.5003 23.3538 15.5003H24.5622C25.7128 15.5003 26.6455 16.4331 26.6455 17.5837V20.5524C26.6455 21.703 25.7128 22.6357 24.5622 22.6357H23.4788C22.9266 22.6357 22.4788 22.188 22.4788 21.6357V16.3753ZM24.1455 17.167V20.9691H24.5622C24.7923 20.9691 24.9788 20.7825 24.9788 20.5524V17.5837C24.9788 17.3535 24.7923 17.167 24.5622 17.167H24.1455Z" fill="#2B1463"></path>
<path fill-rule="evenodd" clip-rule="evenodd" d="M9.61426 17.5837C9.61426 16.4331 10.547 15.5003 11.6976 15.5003H12.7809C13.3332 15.5003 13.7809 15.948 13.7809 16.5003V21.7607C13.7809 22.244 13.3892 22.6357 12.9059 22.6357H11.6976C10.547 22.6357 9.61426 21.703 9.61426 20.5524V17.5837ZM11.6976 17.167C11.4675 17.167 11.2809 17.3535 11.2809 17.5837V20.5524C11.2809 20.7825 11.4675 20.9691 11.6976 20.9691H12.1143V17.167H11.6976Z" fill="#2B1463"></path>
<path fill-rule="evenodd" clip-rule="evenodd" d="M14.6167 12.1826C13.7143 12.7765 12.9997 13.8039 12.9997 15.7087H11.333C11.333 13.2987 12.2851 11.7219 13.7004 10.7904C15.0565 9.89781 16.7322 9.66699 18.1038 9.66699C19.4755 9.66699 21.1621 9.89786 22.5298 10.788C23.9572 11.7171 24.9268 13.2932 24.9268 15.7087H23.2601C23.2601 13.8094 22.5369 12.7813 21.6206 12.1849C20.6445 11.5496 19.3363 11.3337 18.1038 11.3337C16.8713 11.3337 15.5783 11.5496 14.6167 12.1826Z" fill="#2B1463"></path>
<path fill-rule="evenodd" clip-rule="evenodd" d="M24.2757 21.3597C24.736 21.3597 25.109 21.7328 25.109 22.193C25.109 23.5206 24.5394 24.5852 23.6425 25.2994C22.7648 25.9982 21.6141 26.3337 20.4476 26.3337H18.9294C18.3057 26.3337 17.7949 25.9714 17.4817 25.5133C17.1633 25.0476 17.008 24.4404 17.0509 23.7797C17.0807 23.3204 17.4772 22.9723 17.9365 23.0021C18.3958 23.0319 18.7439 23.4284 18.7141 23.8877C18.6919 24.2295 18.7775 24.4556 18.8575 24.5726C18.9009 24.6361 18.934 24.6594 18.9482 24.667H20.4476C21.3124 24.667 22.0757 24.4165 22.6043 23.9956C23.1136 23.59 23.4424 23.0009 23.4424 22.193C23.4424 21.7328 23.8155 21.3597 24.2757 21.3597Z" fill="#2B1463"></path>
</svg>
