<svg xmlns="http://www.w3.org/2000/svg" fill="none" viewBox="0 0 36 36" height="36" width="36">
<path fill="#F1EFFF" d="M0 6C0 2.68629 2.68629 0 6 0H30C33.3137 0 36 2.68629 36 6V30C36 33.3137 33.3137 36 30 36H6C2.68629 36 0 33.3137 0 30V6Z"></path>
<path fill="#2B1463" d="M13.8334 13.8334C13.8334 11.5322 15.6989 9.66675 18 9.66675C20.3012 9.66675 22.1667 11.5322 22.1667 13.8334V15.5001C23.5474 15.5001 24.6667 16.6194 24.6667 18.0001V23.8334C24.6667 25.2141 23.5474 26.3334 22.1667 26.3334H13.8334C12.4527 26.3334 11.3334 25.2141 11.3334 23.8334V18.0001C11.3334 16.6194 12.4527 15.5001 13.8334 15.5001V13.8334ZM13.8334 17.1667C13.3731 17.1667 13 17.5398 13 18.0001V23.8334C13 24.2937 13.3731 24.6667 13.8334 24.6667H22.1667C22.6269 24.6667 23 24.2937 23 23.8334V18.0001C23 17.5398 22.6269 17.1667 22.1667 17.1667H13.8334ZM20.5 15.5001H15.5V13.8334C15.5 12.4527 16.6193 11.3334 18 11.3334C19.3808 11.3334 20.5 12.4527 20.5 13.8334V15.5001ZM18 18.8334C18.4603 18.8334 18.8334 19.2065 18.8334 19.6667V22.1667C18.8334 22.627 18.4603 23.0001 18 23.0001C17.5398 23.0001 17.1667 22.627 17.1667 22.1667V19.6667C17.1667 19.2065 17.5398 18.8334 18 18.8334Z" clip-rule="evenodd" fill-rule="evenodd"></path>
</svg>
