<svg xmlns="http://www.w3.org/2000/svg" fill="none" viewBox="0 0 36 36" height="36" width="36">
<path fill="#F1EFFF" d="M0 6C0 2.68629 2.68629 0 6 0H30C33.3137 0 36 2.68629 36 6V30C36 33.3137 33.3137 36 30 36H6C2.68629 36 0 33.3137 0 30V6Z"></path>
<path fill="#2B1463" d="M17.3728 15.8524L15.2517 13.7313C14.9262 13.4058 14.3986 13.4058 14.0732 13.7313C13.7477 14.0567 13.7477 14.5844 14.0732 14.9098L16.7817 17.6183C17.5684 18.405 18.844 18.405 19.6307 17.6183L22.3392 14.9098C22.6646 14.5844 22.6646 14.0567 22.3392 13.7313C22.0137 13.4058 21.4861 13.4058 21.1607 13.7313L19.0395 15.8525L19.0395 10.7083C19.0395 10.2481 18.6664 9.875 18.2062 9.875C17.7459 9.875 17.3728 10.2481 17.3728 10.7083L17.3728 15.8524ZM14.3858 16.4773C14.5999 16.8847 14.4431 17.3885 14.0357 17.6026C13.1935 18.0452 13.0008 18.4627 12.9999 18.6755H13.0008V18.7026C13.018 18.9481 13.2828 19.4148 14.2801 19.8711C15.24 20.3104 16.6246 20.6041 18.1986 20.6041C19.7727 20.6041 21.1573 20.3104 22.1171 19.8711C23.0185 19.4586 23.3215 19.0377 23.3841 18.7793V18.6755H23.3973C23.3964 18.4627 23.2037 18.0452 22.3615 17.6026C21.9541 17.3885 21.7973 16.8847 22.0114 16.4773C22.2255 16.0699 22.7293 15.9131 23.1367 16.1272C24.138 16.6533 25.064 17.5024 25.064 18.677C25.064 18.759 25.0595 18.8394 25.0508 18.9182V22.1667H25.0508C25.0508 23.4582 23.9449 24.3403 22.7974 24.8533C21.5775 25.3987 19.9511 25.7083 18.1986 25.7083C16.446 25.7083 14.817 25.3987 13.5944 24.8537C12.4457 24.3416 11.3341 23.4599 11.3341 22.1667H11.3342L11.3342 18.741C11.3336 18.7198 11.3333 18.6984 11.3333 18.677C11.3333 17.5024 12.2592 16.6533 13.2605 16.1272C13.6679 15.9131 14.1717 16.0699 14.3858 16.4773ZM13.0008 21.0811V22.1671H13.0008C13.0011 22.3986 13.2397 22.8707 14.273 23.3314C15.2332 23.7594 16.6197 24.0417 18.1986 24.0417C19.7774 24.0417 21.1605 23.7594 22.1172 23.3318C23.1457 22.872 23.3839 22.4003 23.3842 22.1671H23.3841V21.0883C23.1977 21.1984 23.0048 21.2978 22.8107 21.3866C21.5874 21.9465 19.956 22.2707 18.1986 22.2707C16.4413 22.2707 14.8098 21.9465 13.5866 21.3866C13.3881 21.2958 13.1911 21.194 13.0008 21.0811Z" clip-rule="evenodd" fill-rule="evenodd"></path>
</svg>
