<svg xmlns="http://www.w3.org/2000/svg" fill="none" viewBox="0 0 36 36" height="36" width="36">
<path fill="#F1EFFF" d="M0 6C0 2.68629 2.68629 0 6 0H30C33.3137 0 36 2.68629 36 6V30C36 33.3137 33.3137 36 30 36H6C2.68629 36 0 33.3137 0 30V6Z"></path>
<path fill="#2B1463" d="M18 10.5C18.4602 10.5 18.8333 10.8731 18.8333 11.3333V17.1667H24.6667C25.1269 17.1667 25.5 17.5398 25.5 18C25.5 18.4602 25.1269 18.8333 24.6667 18.8333H18.8333V24.6667C18.8333 25.1269 18.4602 25.5 18 25.5C17.5398 25.5 17.1667 25.1269 17.1667 24.6667V18.8333H11.3333C10.8731 18.8333 10.5 18.4602 10.5 18C10.5 17.5398 10.8731 17.1667 11.3333 17.1667H17.1667V11.3333C17.1667 10.8731 17.5398 10.5 18 10.5Z" clip-rule="evenodd" fill-rule="evenodd"></path>
</svg>
