<svg width="36" height="36" viewBox="0 0 36 36" fill="none" xmlns="http://www.w3.org/2000/svg">
<rect width="36" height="36" fill="#F1EFFF"></rect>
<path fill-rule="evenodd" clip-rule="evenodd" d="M19.9907 10.8467C19.5305 10.8467 19.1574 11.2198 19.1574 11.68C19.1574 12.1403 19.5305 12.5133 19.9907 12.5133H22.1442L18.2444 16.4131C17.919 16.7386 17.919 17.2662 18.2444 17.5916C18.5698 17.9171 19.0975 17.9171 19.4229 17.5916L23.3227 13.6919V15.8454C23.3227 16.3056 23.6958 16.6787 24.156 16.6787C24.6163 16.6787 24.9894 16.3056 24.9894 15.8454V12.6056C24.9894 11.6342 24.2019 10.8467 23.2304 10.8467H19.9907ZM24.271 18.5142C23.6419 17.8222 22.5666 17.7832 21.889 18.4277L18.1239 22.0092L16.2632 20.2229C15.6088 19.5946 14.572 19.6052 13.9305 20.2467L9.91107 24.2661C9.58563 24.5915 9.58563 25.1192 9.91107 25.4446C10.2365 25.7701 10.7641 25.7701 11.0896 25.4446L15.109 21.4252L16.9697 23.2115C17.6125 23.8286 18.627 23.8309 19.2726 23.2168L23.0377 19.6353L24.8837 21.6659C25.1933 22.0065 25.7203 22.0316 26.0609 21.722C26.4014 21.4124 26.4265 20.8854 26.1169 20.5448L24.271 18.5142Z" fill="#2B1463"></path>
</svg>
