<svg xmlns="http://www.w3.org/2000/svg" fill="none" viewBox="0 0 36 37" height="37" width="36">
<g clip-path="url(#clip0_6810_30426)">
<path fill="#F1EFFF" d="M0 6.2002C0 2.88649 2.68629 0.200195 6 0.200195H30C33.3137 0.200195 36 2.88649 36 6.2002V30.2002C36 33.5139 33.3137 36.2002 30 36.2002H6C2.68629 36.2002 0 33.5139 0 30.2002V6.2002Z"></path>
<g clip-path="url(#clip1_6810_30426)">
<path fill="#2B1463" d="M23.8228 26C23.5872 26 23.374 25.9102 23.2057 25.742C23.0374 25.5737 22.9477 25.3605 22.9477 25.1249C22.9477 24.8893 23.0374 24.6761 23.2057 24.5079L25.7076 22.006H16.6762C16.1938 22.006 15.8123 21.6133 15.8123 21.1421C15.8123 20.6709 16.205 20.2782 16.6762 20.2782H25.7076L23.2057 17.7764C23.0374 17.6081 22.9477 17.3949 22.9477 17.1593C22.9477 16.9237 23.0374 16.7105 23.2057 16.5423C23.374 16.374 23.5872 16.2842 23.8228 16.2842C24.0584 16.2842 24.2715 16.374 24.4398 16.5423L27.4914 19.5939C28.3441 20.4465 28.3441 21.8377 27.4914 22.7016L24.4398 25.7532C24.2715 25.9215 24.0584 26.0112 23.8228 26.0112V26ZM12.1885 20.7046C11.9529 20.7046 11.7398 20.6148 11.5715 20.4465L8.51986 17.4061C7.66721 16.5535 7.66721 15.1623 8.51986 14.2984L11.5715 11.258C11.7398 11.0898 11.9529 11 12.1885 11C12.4241 11 12.6373 11.0898 12.8056 11.258C13.1422 11.5946 13.1422 12.1444 12.8056 12.4809L10.3037 14.9828H19.3351C19.8175 14.9828 20.199 15.3755 20.199 15.8467C20.199 16.3179 19.8063 16.7105 19.3351 16.7105H10.2925L12.7944 19.2124C13.1309 19.549 13.1309 20.0987 12.7944 20.4353C12.6261 20.6036 12.4129 20.6933 12.1773 20.6933L12.1885 20.7046Z" clip-rule="evenodd" fill-rule="evenodd"></path>
</g>
</g>
<defs>
<clipPath id="clip0_6810_30426">
<rect fill="white" height="37" width="36"></rect>
</clipPath>
<clipPath id="clip1_6810_30426">
<rect transform="translate(7.88037 11)" fill="white" height="15" width="20.2393"></rect>
</clipPath>
</defs>
</svg>
