<svg xmlns="http://www.w3.org/2000/svg" fill="none" viewBox="0 0 36 36" height="36" width="36">
<path fill="#F1EFFF" d="M0 6C0 2.68629 2.68629 0 6 0H30C33.3137 0 36 2.68629 36 6V30C36 33.3137 33.3137 36 30 36H6C2.68629 36 0 33.3137 0 30V6Z"></path>
<path fill="#2B1463" d="M19.176 10.1918C18.4251 9.76941 17.5082 9.76941 16.7574 10.1918L11.7574 13.0042C10.9807 13.4411 10.5 14.263 10.5 15.1541L10.5 20.7048C10.5 21.596 10.9807 22.4179 11.7574 22.8548L16.7574 25.667C17.5083 26.0893 18.4251 26.0893 19.1759 25.667L24.176 22.8545C24.9527 22.4176 25.4333 21.5958 25.4333 20.7046V15.1541C25.4333 14.263 24.9527 13.4411 24.176 13.0042L19.176 10.1918ZM17.5418 11.5863C17.8056 11.4379 18.1277 11.4379 18.3916 11.5863L23.3916 14.3988C23.6645 14.5523 23.8333 14.841 23.8333 15.1541V20.7046C23.8333 21.0177 23.6645 21.3065 23.3916 21.46L18.3915 24.2725C18.1277 24.4208 17.8056 24.4209 17.5418 24.2725L12.5418 21.4602C12.2689 21.3067 12.1 21.018 12.1 20.7048V15.1541C12.1 14.841 12.2689 14.5522 12.5418 14.3987L17.5418 11.5863ZM18.7667 15.4309C18.7667 14.989 18.4085 14.6309 17.9667 14.6309C17.5249 14.6309 17.1667 14.989 17.1667 15.4309V17.1309H15.4667C15.0249 17.1309 14.6667 17.489 14.6667 17.9309C14.6667 18.3727 15.0249 18.7309 15.4667 18.7309H17.1667V20.4309C17.1667 20.8727 17.5249 21.2309 17.9667 21.2309C18.4085 21.2309 18.7667 20.8727 18.7667 20.4309V18.7309H20.4667C20.9085 18.7309 21.2667 18.3727 21.2667 17.9309C21.2667 17.489 20.9085 17.1309 20.4667 17.1309H18.7667V15.4309Z" clip-rule="evenodd" fill-rule="evenodd"></path>
</svg>
