<svg width="36" height="36" viewBox="0 0 36 36" fill="none" xmlns="http://www.w3.org/2000/svg">
<rect width="36" height="36" fill="#F1EFFF"></rect>
<path fill-rule="evenodd" clip-rule="evenodd" d="M12.1667 12.8536C12.1667 12.8536 12.1668 12.8576 12.1686 12.8638C12.1708 12.8714 12.1762 12.8867 12.1897 12.91C12.218 12.9588 12.2772 13.0347 12.3912 13.1299C12.6244 13.3245 13.0116 13.5371 13.5633 13.7319C14.6593 14.1187 16.2278 14.3736 18 14.3736C19.7722 14.3736 21.3407 14.1187 22.4367 13.7319C22.9884 13.5371 23.3756 13.3245 23.6088 13.1299C23.7228 13.0347 23.782 12.9588 23.8103 12.91C23.8238 12.8867 23.8292 12.8714 23.8314 12.8638C23.8332 12.8575 23.8333 12.8538 23.8333 12.8538V12.8538C23.8333 12.8538 23.8334 12.8504 23.8314 12.8434C23.8292 12.8359 23.8238 12.8206 23.8103 12.7973C23.782 12.7485 23.7228 12.6726 23.6088 12.5774C23.3756 12.3828 22.9884 12.1702 22.4367 11.9754C21.3407 11.5885 19.7722 11.3337 18 11.3337C16.2278 11.3337 14.6593 11.5885 13.5633 11.9754C13.0116 12.1702 12.6244 12.3828 12.3912 12.5774C12.2772 12.6726 12.218 12.7485 12.1897 12.7973C12.1762 12.8206 12.1708 12.8359 12.1686 12.8434C12.1667 12.8502 12.1667 12.8536 12.1667 12.8536ZM23.8333 14.9493C23.5713 15.0811 23.2881 15.1988 22.9914 15.3035C21.6745 15.7684 19.9097 16.0403 18 16.0403C16.0903 16.0403 14.3255 15.7684 13.0086 15.3035C12.7119 15.1988 12.4287 15.0811 12.1667 14.9493V16.8471C12.1667 16.8471 12.1668 16.8511 12.1686 16.8573C12.1708 16.8648 12.1762 16.8801 12.1897 16.9034C12.218 16.9522 12.2772 17.0282 12.3912 17.1233C12.6244 17.3179 13.0116 17.5306 13.5633 17.7253C14.6593 18.1122 16.2278 18.3671 18 18.3671C19.7722 18.3671 21.3407 18.1122 22.4367 17.7253C22.9884 17.5306 23.3756 17.3179 23.6088 17.1233C23.7228 17.0282 23.782 16.9522 23.8103 16.9034C23.8238 16.8801 23.8292 16.8648 23.8314 16.8573C23.8333 16.8505 23.8333 16.8472 23.8333 16.8472V14.9493ZM12.1667 18.9428C12.4287 19.0745 12.7119 19.1922 13.0086 19.297C14.3255 19.7618 16.0903 20.0338 18 20.0338C19.9097 20.0338 21.6745 19.7618 22.9914 19.297C23.6461 19.0659 24.2352 18.7714 24.6767 18.4029C25.1136 18.0383 25.5 17.5165 25.5 16.8471V12.8536C25.5 12.1842 25.1136 11.6624 24.6767 11.2978C24.2352 10.9293 23.6461 10.6349 22.9914 10.4038C21.6745 9.93892 19.9097 9.66699 18 9.66699C16.0903 9.66699 14.3255 9.93892 13.0086 10.4038C12.3539 10.6349 11.7648 10.9293 11.3233 11.2978C10.8864 11.6624 10.5 12.1842 10.5 12.8536V20.7396C10.5 21.409 10.8864 21.9308 11.3233 22.2954C11.7648 22.6639 12.3539 22.9584 13.0086 23.1895C14.3255 23.6543 16.0903 23.9263 18 23.9263C18.4602 23.9263 18.8333 23.5532 18.8333 23.0929C18.8333 22.6327 18.4602 22.2596 18 22.2596C16.2278 22.2596 14.6593 22.0047 13.5633 21.6178C13.0116 21.4231 12.6244 21.2104 12.3912 21.0158C12.2772 20.9207 12.218 20.8447 12.1897 20.7959C12.1762 20.7726 12.1708 20.7573 12.1686 20.7498C12.1667 20.743 12.1667 20.7397 12.1667 20.7397L12.1667 18.9428Z" fill="#2B1463"></path>
<path fill-rule="evenodd" clip-rule="evenodd" d="M26.8254 20.2444C27.1968 20.5162 27.2776 21.0376 27.0059 21.409L23.7543 25.8535C23.6204 26.0365 23.4177 26.157 23.193 26.1873C22.9683 26.2176 22.7409 26.155 22.5634 26.0139L20.815 24.6251C20.4546 24.3388 20.3946 23.8146 20.6808 23.4542C20.9671 23.0938 21.4913 23.0338 21.8517 23.32L22.9211 24.1696L25.6608 20.4249C25.9325 20.0535 26.4539 19.9727 26.8254 20.2444Z" fill="#2B1463"></path>
</svg>
