<svg xmlns="http://www.w3.org/2000/svg" fill="none" viewBox="0 0 36 37" height="37" width="36">
<path fill="#F1EFFF" d="M0 6.2002C0 2.88649 2.68629 0.200195 6 0.200195H30C33.3137 0.200195 36 2.88649 36 6.2002V30.2002C36 33.5139 33.3137 36.2002 30 36.2002H6C2.68629 36.2002 0 33.5139 0 30.2002V6.2002Z"></path>
<path fill="#2B1463" d="M14.006 14.2773C14.3314 14.6027 14.3314 15.1304 14.006 15.4558L12.0952 17.3665H23.9049L21.9941 15.4558C21.6687 15.1304 21.6687 14.6027 21.9941 14.2773C22.3196 13.9518 22.8472 13.9518 23.1726 14.2773L25.9167 17.0214C26.5676 17.6722 26.5676 18.7275 25.9167 19.3784L23.1726 22.1225C22.8472 22.4479 22.3196 22.4479 21.9941 22.1225C21.6687 21.797 21.6687 21.2694 21.9941 20.9439L23.9049 19.0332H12.0952L14.006 20.9439C14.3314 21.2694 14.3314 21.797 14.006 22.1225C13.6805 22.4479 13.1529 22.4479 12.8274 22.1225L10.0834 19.3784C9.4325 18.7275 9.4325 17.6722 10.0834 17.0214L12.8274 14.2773C13.1529 13.9518 13.6805 13.9518 14.006 14.2773Z" clip-rule="evenodd" fill-rule="evenodd"></path>
</svg>
