<svg xmlns="http://www.w3.org/2000/svg" fill="none" viewBox="0 0 36 37" height="37" width="36">
<path fill="#F1EFFF" d="M0 6.2002C0 2.88649 2.68629 0.200195 6 0.200195H30C33.3137 0.200195 36 2.88649 36 6.2002V30.2002C36 33.5139 33.3137 36.2002 30 36.2002H6C2.68629 36.2002 0 33.5139 0 30.2002V6.2002Z"></path>
<path fill="#2B1463" d="M18 10.7002C18.4602 10.7002 18.8333 11.0733 18.8333 11.5335V17.3669H24.6667C25.1269 17.3669 25.5 17.74 25.5 18.2002C25.5 18.6604 25.1269 19.0335 24.6667 19.0335H18.8333V24.8669C18.8333 25.3271 18.4602 25.7002 18 25.7002C17.5398 25.7002 17.1667 25.3271 17.1667 24.8669V19.0335H11.3333C10.8731 19.0335 10.5 18.6604 10.5 18.2002C10.5 17.74 10.8731 17.3669 11.3333 17.3669H17.1667V11.5335C17.1667 11.0733 17.5398 10.7002 18 10.7002Z" clip-rule="evenodd" fill-rule="evenodd"></path>
</svg>
