<svg width="36" height="36" viewBox="0 0 36 36" fill="none" xmlns="http://www.w3.org/2000/svg">
<rect width="36" height="36" fill="#F1EFFF"></rect>
<path fill-rule="evenodd" clip-rule="evenodd" d="M15.0049 12.6179L15.0049 10.3958C15.0049 9.9356 14.6318 9.5625 14.1715 9.5625C13.7113 9.5625 13.3382 9.9356 13.3382 10.3958L13.3382 12.6179C12.1558 12.8163 11.2549 13.8446 11.2549 15.0833V20.9167C11.2549 22.1554 12.1558 23.1837 13.3382 23.3821L13.3382 25.6042C13.3382 26.0644 13.7113 26.4375 14.1715 26.4375C14.6318 26.4375 15.0049 26.0644 15.0049 25.6042L15.0049 23.3821C16.1873 23.1837 17.0882 22.1554 17.0882 20.9167V15.0833C17.0882 13.8446 16.1873 12.8163 15.0049 12.6179ZM14.5882 21.75H14.1728L14.1715 21.75L14.1703 21.75H13.7549C13.2946 21.75 12.9215 21.3769 12.9215 20.9167V15.0833C12.9215 14.6231 13.2946 14.25 13.7549 14.25H14.5882C15.0485 14.25 15.4216 14.6231 15.4216 15.0833V20.9167C15.4216 21.3769 15.0485 21.75 14.5882 21.75ZM22.6611 15.6387V13.4167C22.6611 12.9564 22.288 12.5833 21.8278 12.5833C21.3676 12.5833 20.9945 12.9564 20.9945 13.4167V15.6387C19.8121 15.8371 18.9111 16.8654 18.9111 18.1042V23.9375C18.9111 25.3182 20.0304 26.4375 21.4111 26.4375H22.2445C23.6252 26.4375 24.7445 25.3182 24.7445 23.9375V18.1042C24.7445 16.8654 23.8435 15.8371 22.6611 15.6387ZM21.4111 17.2708C20.9509 17.2708 20.5778 17.6439 20.5778 18.1042V23.9375C20.5778 24.3977 20.9509 24.7708 21.4111 24.7708H22.2445C22.7047 24.7708 23.0778 24.3977 23.0778 23.9375V18.1042C23.0778 17.6439 22.7047 17.2708 22.2445 17.2708H21.4111Z" fill="#2B1463"></path>
</svg>
