<svg xmlns="http://www.w3.org/2000/svg" fill="none" viewBox="0 0 36 36" height="36" width="36">
<path fill="#F1EFFF" d="M0 6C0 2.68629 2.68629 0 6 0H30C33.3137 0 36 2.68629 36 6V30C36 33.3137 33.3137 36 30 36H6C2.68629 36 0 33.3137 0 30V6Z"></path>
<path fill="#2B1463" d="M13.8335 13.8337C13.8335 11.5325 15.699 9.66699 18.0002 9.66699C20.3013 9.66699 22.1668 11.5325 22.1668 13.8337V15.5003C23.5475 15.5003 24.6668 16.6196 24.6668 18.0003V23.8337C24.6668 25.2144 23.5475 26.3337 22.1668 26.3337H13.8335C12.4528 26.3337 11.3335 25.2144 11.3335 23.8337V18.0003C11.3335 16.6196 12.4528 15.5003 13.8335 15.5003V13.8337ZM13.8335 17.167C13.3733 17.167 13.0002 17.5401 13.0002 18.0003V23.8337C13.0002 24.2939 13.3733 24.667 13.8335 24.667H22.1668C22.6271 24.667 23.0002 24.2939 23.0002 23.8337V18.0003C23.0002 17.5401 22.6271 17.167 22.1668 17.167H13.8335ZM20.5002 15.5003H15.5002V13.8337C15.5002 12.4529 16.6195 11.3337 18.0002 11.3337C19.3809 11.3337 20.5002 12.4529 20.5002 13.8337V15.5003ZM18.0002 18.8337C18.4604 18.8337 18.8335 19.2068 18.8335 19.667V22.167C18.8335 22.6272 18.4604 23.0003 18.0002 23.0003C17.5399 23.0003 17.1668 22.6272 17.1668 22.167V19.667C17.1668 19.2068 17.5399 18.8337 18.0002 18.8337Z" clip-rule="evenodd" fill-rule="evenodd"></path>
</svg>
