<svg xmlns="http://www.w3.org/2000/svg" fill="none" viewBox="0 0 36 36" height="36" width="36">
<path fill="#F1EFFF" d="M0 6C0 2.68629 2.68629 0 6 0H30C33.3137 0 36 2.68629 36 6V30C36 33.3137 33.3137 36 30 36H6C2.68629 36 0 33.3137 0 30V6Z"></path>
<path fill="#2B1463" d="M23.0554 10.6466C23.4347 10.9074 23.5308 11.4262 23.27 11.8054L14.1034 25.1388C13.8426 25.518 13.3238 25.6141 12.9446 25.3534C12.5653 25.0926 12.4692 24.5738 12.73 24.1945L21.8966 10.8612C22.1574 10.482 22.6762 10.3859 23.0554 10.6466Z" clip-rule="evenodd" fill-rule="evenodd"></path>
<path fill="#2B1463" d="M22.1667 20.5C21.2462 20.5 20.5 21.2462 20.5 22.1667C20.5 23.0871 21.2462 23.8333 22.1667 23.8333C23.0871 23.8333 23.8333 23.0871 23.8333 22.1667C23.8333 21.2462 23.0871 20.5 22.1667 20.5ZM18.8333 22.1667C18.8333 20.3257 20.3257 18.8333 22.1667 18.8333C24.0076 18.8333 25.5 20.3257 25.5 22.1667C25.5 24.0076 24.0076 25.5 22.1667 25.5C20.3257 25.5 18.8333 24.0076 18.8333 22.1667Z" clip-rule="evenodd" fill-rule="evenodd"></path>
<path fill="#2B1463" d="M13.8333 12.1667C12.9129 12.1667 12.1667 12.9128 12.1667 13.8333C12.1667 14.7538 12.9129 15.5 13.8333 15.5C14.7538 15.5 15.5 14.7538 15.5 13.8333C15.5 12.9128 14.7538 12.1667 13.8333 12.1667ZM10.5 13.8333C10.5 11.9924 11.9924 10.5 13.8333 10.5C15.6743 10.5 17.1667 11.9924 17.1667 13.8333C17.1667 15.6743 15.6743 17.1667 13.8333 17.1667C11.9924 17.1667 10.5 15.6743 10.5 13.8333Z" clip-rule="evenodd" fill-rule="evenodd"></path>
</svg>
