<svg xmlns="http://www.w3.org/2000/svg" fill="none" viewBox="0 0 36 36" height="36" width="36">
<path fill="#F1EFFF" d="M0 6C0 2.68629 2.68629 0 6 0H30C33.3137 0 36 2.68629 36 6V30C36 33.3137 33.3137 36 30 36H6C2.68629 36 0 33.3137 0 30V6Z"></path>
<path fill="#2B1463" d="M13.3384 12.6179L13.3384 10.3958C13.3384 9.9356 12.9653 9.5625 12.505 9.5625C12.0448 9.5625 11.6717 9.9356 11.6717 10.3958L11.6717 12.6179C10.4893 12.8163 9.58838 13.8446 9.58838 15.0833V20.9167C9.58838 22.1554 10.4893 23.1837 11.6717 23.3821L11.6717 25.6042C11.6717 26.0644 12.0448 26.4375 12.505 26.4375C12.9653 26.4375 13.3384 26.0644 13.3384 25.6042L13.3384 23.3821C14.5208 23.1837 15.4217 22.1554 15.4217 20.9167V15.0833C15.4217 13.8446 14.5208 12.8163 13.3384 12.6179ZM12.9217 21.75H12.5063L12.505 21.75L12.5038 21.75H12.0884C11.6281 21.75 11.255 21.3769 11.255 20.9167V15.0833C11.255 14.6231 11.6281 14.25 12.0884 14.25H12.9217C13.3819 14.25 13.755 14.6231 13.755 15.0833V20.9167C13.755 21.3769 13.3819 21.75 12.9217 21.75ZM17.2446 18.1042C17.2446 16.7235 18.3639 15.6042 19.7446 15.6042H20.9946V13.4167C20.9946 12.9564 21.3677 12.5833 21.828 12.5833C22.2882 12.5833 22.6613 12.9564 22.6613 13.4167V15.6042H23.9113C25.292 15.6042 26.4113 16.7235 26.4113 18.1042V23.9375C26.4113 25.3182 25.292 26.4375 23.9113 26.4375H19.7446C18.3639 26.4375 17.2446 25.3182 17.2446 23.9375V18.1042ZM19.7446 17.2708C19.2844 17.2708 18.9113 17.6439 18.9113 18.1042V23.9375C18.9113 24.3977 19.2844 24.7708 19.7446 24.7708H23.9113C24.3715 24.7708 24.7446 24.3977 24.7446 23.9375V18.1042C24.7446 17.6439 24.3715 17.2708 23.9113 17.2708H19.7446Z" clip-rule="evenodd" fill-rule="evenodd"></path>
</svg>
