<svg xmlns="http://www.w3.org/2000/svg" fill="none" viewBox="0 0 36 36" height="36" width="36">
<path fill="#F1EFFF" d="M0 6C0 2.68629 2.68629 0 6 0H30C33.3137 0 36 2.68629 36 6V30C36 33.3137 33.3137 36 30 36H6C2.68629 36 0 33.3137 0 30V6Z"></path>
<path fill="#2B1463" d="M17.3731 15.8524L15.2519 13.7313C14.9265 13.4058 14.3988 13.4058 14.0734 13.7313C13.748 14.0567 13.748 14.5844 14.0734 14.9098L16.7819 17.6183C17.5686 18.405 18.8442 18.405 19.6309 17.6183L22.3394 14.9098C22.6649 14.5844 22.6649 14.0567 22.3394 13.7313C22.014 13.4058 21.4863 13.4058 21.1609 13.7313L19.0397 15.8525V10.7083C19.0397 10.2481 18.6666 9.875 18.2064 9.875C17.7462 9.875 17.3731 10.2481 17.3731 10.7083V15.8524ZM14.386 16.4773C14.6001 16.8847 14.4434 17.3885 14.036 17.6026C13.1937 18.0452 13.0011 18.4627 13.0002 18.6755H13.0011V18.7026C13.0183 18.9481 13.2831 19.4148 14.2803 19.8711C15.2402 20.3104 16.6248 20.6041 18.1989 20.6041C19.7729 20.6041 21.1575 20.3104 22.1174 19.8711C23.0188 19.4586 23.3218 19.0377 23.3844 18.7793V18.6755H23.3975C23.3966 18.4627 23.204 18.0452 22.3617 17.6026C21.9543 17.3885 21.7976 16.8847 22.0117 16.4773C22.2257 16.0699 22.7296 15.9131 23.137 16.1272C24.1382 16.6533 25.0642 17.5024 25.0642 18.677C25.0642 18.759 25.0597 18.8394 25.051 18.9182V22.1667H25.0511C25.0511 23.4582 23.9451 24.3403 22.7976 24.8533C21.5777 25.3987 19.9514 25.7083 18.1988 25.7083C16.4462 25.7083 14.8172 25.3987 13.5947 24.8537C12.4459 24.3416 11.3344 23.4599 11.3344 22.1667H11.3344L11.3344 18.741C11.3338 18.7198 11.3335 18.6984 11.3335 18.677C11.3335 17.5024 12.2595 16.6533 13.2607 16.1272C13.6681 15.9131 14.172 16.0699 14.386 16.4773ZM13.0011 21.0811V22.1671H13.001C13.0013 22.3986 13.2399 22.8707 14.2733 23.3314C15.2335 23.7594 16.62 24.0417 18.1988 24.0417C19.7776 24.0417 21.1608 23.7594 22.1174 23.3318C23.146 22.872 23.3841 22.4003 23.3844 22.1671H23.3844V21.0883C23.1979 21.1984 23.0051 21.2978 22.8109 21.3866C21.5876 21.9465 19.9562 22.2707 18.1989 22.2707C16.4415 22.2707 14.8101 21.9465 13.5868 21.3866C13.3884 21.2958 13.1913 21.194 13.0011 21.0811Z" clip-rule="evenodd" fill-rule="evenodd"></path>
</svg>
