<svg xmlns="http://www.w3.org/2000/svg" fill="none" viewBox="0 0 36 36" height="36" width="36">
<path fill="#F1EFFF" d="M0 6C0 2.68629 2.68629 0 6 0H30C33.3137 0 36 2.68629 36 6V30C36 33.3137 33.3137 36 30 36H6C2.68629 36 0 33.3137 0 30V6Z"></path>
<path fill="#2B1463" d="M12.1667 12.8534C12.1667 12.8534 12.1668 12.8574 12.1686 12.8636C12.1708 12.8711 12.1762 12.8864 12.1897 12.9097C12.218 12.9585 12.2772 13.0344 12.3912 13.1296C12.6244 13.3242 13.0116 13.5369 13.5633 13.7316C14.6593 14.1185 16.2278 14.3734 18 14.3734C19.7722 14.3734 21.3407 14.1185 22.4367 13.7316C22.9884 13.5369 23.3756 13.3242 23.6088 13.1296C23.7228 13.0344 23.782 12.9585 23.8103 12.9097C23.8238 12.8864 23.8292 12.8711 23.8314 12.8636C23.8332 12.8573 23.8333 12.8536 23.8333 12.8536C23.8333 12.8536 23.8334 12.8502 23.8314 12.8432C23.8292 12.8357 23.8238 12.8204 23.8103 12.797C23.782 12.7483 23.7228 12.6723 23.6088 12.5772C23.3756 12.3826 22.9884 12.1699 22.4367 11.9752C21.3407 11.5883 19.7722 11.3334 18 11.3334C16.2278 11.3334 14.6593 11.5883 13.5633 11.9752C13.0116 12.1699 12.6244 12.3826 12.3912 12.5772C12.2772 12.6723 12.218 12.7483 12.1897 12.797C12.1762 12.8204 12.1708 12.8357 12.1686 12.8432C12.1667 12.85 12.1667 12.8534 12.1667 12.8534ZM23.8333 14.9491C23.5713 15.0808 23.2881 15.1985 22.9914 15.3032C21.6745 15.7681 19.9097 16.04 18 16.04C16.0903 16.04 14.3255 15.7681 13.0086 15.3032C12.7119 15.1985 12.4287 15.0808 12.1667 14.9491V16.8469C12.1667 16.8469 12.1668 16.8508 12.1686 16.8571C12.1708 16.8646 12.1762 16.8799 12.1897 16.9032C12.218 16.952 12.2772 17.0279 12.3912 17.1231C12.6244 17.3177 13.0116 17.5303 13.5633 17.7251C14.6593 18.112 16.2278 18.3668 18 18.3668C19.7722 18.3668 21.3407 18.112 22.4367 17.7251C22.9884 17.5303 23.3756 17.3177 23.6088 17.1231C23.7228 17.0279 23.782 16.952 23.8103 16.9032C23.8238 16.8799 23.8292 16.8646 23.8314 16.8571C23.8333 16.8503 23.8333 16.8469 23.8333 16.8469V14.9491ZM12.1667 18.9426C12.4287 19.0743 12.7119 19.192 13.0086 19.2967C14.3255 19.7616 16.0903 20.0335 18 20.0335C19.9097 20.0335 21.6745 19.7616 22.9914 19.2967C23.6461 19.0656 24.2352 18.7712 24.6767 18.4027C25.1136 18.0381 25.5 17.5163 25.5 16.8469V12.8534C25.5 12.184 25.1136 11.6622 24.6767 11.2976C24.2352 10.9291 23.6461 10.6346 22.9914 10.4035C21.6745 9.93867 19.9097 9.66675 18 9.66675C16.0903 9.66675 14.3255 9.93867 13.0086 10.4035C12.3539 10.6346 11.7648 10.9291 11.3233 11.2976C10.8864 11.6622 10.5 12.184 10.5 12.8534V20.7394C10.5 21.4088 10.8864 21.9306 11.3233 22.2952C11.7648 22.6637 12.3539 22.9581 13.0086 23.1892C14.3255 23.6541 16.0903 23.926 18 23.926C18.4602 23.926 18.8333 23.5529 18.8333 23.0927C18.8333 22.6324 18.4602 22.2593 18 22.2593C16.2278 22.2593 14.6593 22.0045 13.5633 21.6176C13.0116 21.4228 12.6244 21.2102 12.3912 21.0156C12.2772 20.9204 12.218 20.8445 12.1897 20.7957C12.1762 20.7724 12.1708 20.7571 12.1686 20.7496C12.1667 20.7428 12.1667 20.7394 12.1667 20.7394L12.1667 18.9426Z" clip-rule="evenodd" fill-rule="evenodd"></path>
<path fill="#2B1463" d="M26.8254 20.2442C27.1968 20.5159 27.2776 21.0374 27.0059 21.4088L23.7543 25.8532C23.6204 26.0362 23.4177 26.1568 23.193 26.1871C22.9683 26.2173 22.7409 26.1547 22.5634 26.0137L20.815 24.6248C20.4546 24.3385 20.3946 23.8143 20.6808 23.454C20.9671 23.0936 21.4913 23.0335 21.8517 23.3198L22.9211 24.1694L25.6608 20.4247C25.9325 20.0533 26.4539 19.9724 26.8254 20.2442Z" clip-rule="evenodd" fill-rule="evenodd"></path>
</svg>
