<svg xmlns="http://www.w3.org/2000/svg" fill="none" viewBox="0 0 36 36" height="36" width="36">
<path fill="#F1EFFF" d="M0 6C0 2.68629 2.68629 0 6 0H30C33.3137 0 36 2.68629 36 6V30C36 33.3137 33.3137 36 30 36H6C2.68629 36 0 33.3137 0 30V6Z"></path>
<path fill="#2B1463" d="M22.4792 16.3751C22.4792 15.8918 22.8709 15.5001 23.3542 15.5001H24.5625C25.7131 15.5001 26.6458 16.4328 26.6458 17.5834V20.5522C26.6458 21.7028 25.7131 22.6355 24.5625 22.6355H23.4792C22.9269 22.6355 22.4792 22.1878 22.4792 21.6355V16.3751ZM24.1458 17.1667V20.9688H24.5625C24.7926 20.9688 24.9792 20.7823 24.9792 20.5522V17.5834C24.9792 17.3533 24.7926 17.1667 24.5625 17.1667H24.1458Z" clip-rule="evenodd" fill-rule="evenodd"></path>
<path fill="#2B1463" d="M9.61459 17.5834C9.61459 16.4328 10.5473 15.5001 11.6979 15.5001H12.7813C13.3335 15.5001 13.7813 15.9478 13.7813 16.5001V21.7605C13.7813 22.2437 13.3895 22.6355 12.9063 22.6355H11.6979C10.5473 22.6355 9.61459 21.7028 9.61459 20.5522V17.5834ZM11.6979 17.1667C11.4678 17.1667 11.2813 17.3533 11.2813 17.5834V20.5522C11.2813 20.7823 11.4678 20.9688 11.6979 20.9688H12.1146V17.1667H11.6979Z" clip-rule="evenodd" fill-rule="evenodd"></path>
<path fill="#2B1463" d="M14.617 12.1823C13.7146 12.7763 13 13.8037 13 15.7084H11.3333C11.3333 13.2984 12.2854 11.7217 13.7007 10.7901C15.0568 9.89757 16.7325 9.66675 18.1042 9.66675C19.4758 9.66675 21.1624 9.89762 22.5301 10.7878C23.9575 11.7169 24.9271 13.293 24.9271 15.7084H23.2604C23.2604 13.8091 22.5373 12.7811 21.6209 12.1847C20.6449 11.5493 19.3367 11.3334 18.1042 11.3334C16.8717 11.3334 15.5786 11.5494 14.617 12.1823Z" clip-rule="evenodd" fill-rule="evenodd"></path>
<path fill="#2B1463" d="M24.2761 21.3595C24.7363 21.3595 25.1094 21.7326 25.1094 22.1928C25.1094 23.5203 24.5397 24.5849 23.6428 25.2991C22.7651 25.998 21.6144 26.3334 20.4479 26.3334H18.9297C18.3061 26.3334 17.7952 25.9711 17.482 25.5131C17.1636 25.0474 17.0083 24.4402 17.0512 23.7794C17.0811 23.3201 17.4775 22.972 17.9368 23.0018C18.3961 23.0317 18.7442 23.4281 18.7144 23.8874C18.6922 24.2292 18.7778 24.4554 18.8578 24.5723C18.9013 24.6359 18.9343 24.6592 18.9485 24.6667H20.4479C21.3127 24.6667 22.076 24.4162 22.6046 23.9953C23.1139 23.5897 23.4427 23.0006 23.4427 22.1928C23.4427 21.7326 23.8158 21.3595 24.2761 21.3595Z" clip-rule="evenodd" fill-rule="evenodd"></path>
</svg>
