<svg xmlns="http://www.w3.org/2000/svg" fill="none" viewBox="0 0 36 36" height="36" width="36">
<path fill="#F1EFFF" d="M0 6C0 2.68629 2.68629 0 6 0H30C33.3137 0 36 2.68629 36 6V30C36 33.3137 33.3137 36 30 36H6C2.68629 36 0 33.3137 0 30V6Z"></path>
<path fill="#2B1463" d="M18.0006 11.3334C17.0837 11.3334 16.2184 11.5444 15.4485 11.9196C15.0348 12.1213 14.5359 11.9494 14.3343 11.5357C14.1326 11.122 14.3045 10.6231 14.7182 10.4215C15.7106 9.93775 16.8251 9.66675 18.0006 9.66675C22.1427 9.66675 25.5006 13.0246 25.5006 17.1667C25.5006 18.9425 25.3371 20.6809 25.0242 22.3673C24.9402 22.8199 24.5053 23.1186 24.0528 23.0347C23.6003 22.9507 23.3015 22.5158 23.3855 22.0633C23.6799 20.4766 23.8339 18.84 23.8339 17.1667C23.8339 13.9451 21.2222 11.3334 18.0006 11.3334ZM13.0697 12.6036C13.4434 12.8722 13.5287 13.3929 13.2601 13.7666C12.5722 14.7237 12.1673 15.8967 12.1673 17.1667C12.1673 18.3889 12.0209 19.578 11.7444 20.7171C11.6358 21.1643 11.1853 21.4389 10.738 21.3303C10.2908 21.2217 10.0162 20.7712 10.1248 20.3239C10.3703 19.3126 10.5006 18.2555 10.5006 17.1667C10.5006 15.5363 11.0218 14.0251 11.9067 12.7939C12.1753 12.4202 12.696 12.335 13.0697 12.6036ZM18.0006 14.6667C16.6199 14.6667 15.5006 15.786 15.5006 17.1667C15.5006 18.2069 15.4139 19.2274 15.2471 20.2213C15.171 20.6752 14.7413 20.9814 14.2874 20.9053C13.8335 20.8291 13.5273 20.3994 13.6034 19.9455C13.755 19.0424 13.8339 18.1141 13.8339 17.1667C13.8339 14.8656 15.6994 13.0001 18.0006 13.0001C20.3018 13.0001 22.1673 14.8656 22.1673 17.1667C22.1673 17.6979 22.1507 18.2253 22.118 18.7485C22.0893 19.2078 21.6937 19.5569 21.2343 19.5282C20.775 19.4995 20.4259 19.1039 20.4546 18.6446C20.4851 18.156 20.5006 17.6632 20.5006 17.1667C20.5006 15.786 19.3813 14.6667 18.0006 14.6667ZM18.0009 16.3334C18.4612 16.3334 18.8343 16.7065 18.8343 17.1667C18.8343 19.5576 18.4467 21.8597 17.7303 24.0125C17.546 24.5664 17.34 25.1103 17.1132 25.6432C16.933 26.0667 16.4436 26.264 16.0201 26.0838C15.5966 25.9036 15.3994 25.4142 15.5796 24.9907C15.7888 24.499 15.9789 23.9972 16.1489 23.4863C16.8095 21.501 17.1676 19.3765 17.1676 17.1667C17.1676 16.7065 17.5407 16.3334 18.0009 16.3334ZM21.0886 20.7233C21.5413 20.8061 21.8412 21.2403 21.7584 21.693C21.644 22.3186 21.5062 22.9362 21.3462 23.5446C21.1697 24.2153 20.9661 24.875 20.7366 25.5224C20.5828 25.9562 20.1065 26.1832 19.6727 26.0294C19.2389 25.8756 19.0119 25.3993 19.1657 24.9655C19.3798 24.3616 19.5697 23.7462 19.7343 23.1206C19.8837 22.553 20.0122 21.9769 20.1189 21.3931C20.2018 20.9404 20.6359 20.6405 21.0886 20.7233ZM14.0241 21.9576C14.4604 22.1043 14.6951 22.5769 14.5484 23.0131C14.4141 23.4128 14.2663 23.8063 14.1057 24.193C13.9292 24.6181 13.4415 24.8196 13.0165 24.6431C12.5914 24.4666 12.3899 23.9789 12.5664 23.5539C12.7124 23.2025 12.8466 22.845 12.9687 22.4819C13.1154 22.0457 13.5879 21.8109 14.0241 21.9576Z" clip-rule="evenodd" fill-rule="evenodd"></path>
</svg>
