<svg xmlns="http://www.w3.org/2000/svg" fill="none" viewBox="0 0 36 36" height="36" width="36">
<g clip-path="url(#clip0_2036_2578)">
<path fill="#F1EFFF" d="M36 0H0V36H36V0Z"></path>
<path fill="#2B1463" d="M10.2917 18.0003C10.2917 13.7431 13.7429 10.292 18.0001 10.292C19.9876 10.292 21.8319 11.0451 23.2183 12.2838V11.1253C23.2183 10.6651 23.5914 10.292 24.0516 10.292C24.5119 10.292 24.885 10.6651 24.885 11.1253V13.8337C24.885 14.6391 24.232 15.292 23.4266 15.292H20.7183C20.258 15.292 19.8849 14.9189 19.8849 14.4587C19.8849 13.9984 20.258 13.6253 20.7183 13.6253H22.2158C21.1154 12.5936 19.6179 11.9587 18.0001 11.9587C14.6634 11.9587 11.9584 14.6636 11.9584 18.0003C11.9584 18.2568 11.9743 18.5092 12.0052 18.7566C12.0622 19.2133 11.7381 19.6297 11.2814 19.6866C10.8247 19.7436 10.4083 19.4195 10.3513 18.9628C10.312 18.6472 10.2917 18.3259 10.2917 18.0003ZM24.7188 16.314C25.1755 16.2571 25.5919 16.5811 25.6488 17.0378C25.6882 17.3535 25.7084 17.6747 25.7084 18.0003C25.7084 22.2575 22.2573 25.7087 18.0001 25.7087C16.0173 25.7087 14.1771 24.9591 12.7917 23.7257V24.8753C12.7917 25.3356 12.4187 25.7087 11.9584 25.7087C11.4982 25.7087 11.1251 25.3356 11.1251 24.8753V22.167C11.1251 21.3616 11.778 20.7087 12.5834 20.7087H15.2917C15.752 20.7087 16.1251 21.0818 16.1251 21.542C16.1251 22.0022 15.752 22.3753 15.2917 22.3753H13.7844C14.8848 23.4071 16.3822 24.042 18.0001 24.042C21.3368 24.042 24.0417 21.337 24.0417 18.0003C24.0417 17.7438 24.0258 17.4915 23.995 17.2441C23.938 16.7874 24.2621 16.371 24.7188 16.314Z" clip-rule="evenodd" fill-rule="evenodd"></path>
</g>
<defs>
<clipPath id="clip0_2036_2578">
<rect fill="white" height="36" width="36"></rect>
</clipPath>
</defs>
</svg>
