<svg xmlns="http://www.w3.org/2000/svg" fill="none" viewBox="0 0 36 36" height="36" width="36">
<path fill="#F1EFFF" d="M0 6C0 2.68629 2.68629 0 6 0H30C33.3137 0 36 2.68629 36 6V30C36 33.3137 33.3137 36 30 36H6C2.68629 36 0 33.3137 0 30V6Z"></path>
<path fill="#2B1463" d="M17.5522 11.9591L19.9422 11.9592L15.2206 16.6808C14.8951 17.0063 14.8951 17.5339 15.2206 17.8593C15.546 18.1848 16.0736 18.1848 16.3991 17.8593L21.1207 13.1377L21.1207 15.5277C21.1207 15.9879 21.4938 16.361 21.9541 16.361C22.4143 16.361 22.7874 15.9879 22.7874 15.5277L22.7874 12.1633C22.7874 11.1301 21.9498 10.2925 20.9166 10.2925L17.5522 10.2925C17.092 10.2925 16.7189 10.6656 16.7189 11.1258C16.7189 11.586 17.092 11.9591 17.5522 11.9591Z"></path>
<path fill="#2B1463" d="M18.4476 24.0407L16.0576 24.0407L20.7793 19.319C21.1047 18.9936 21.1047 18.466 20.7793 18.1405C20.4538 17.8151 19.9262 17.8151 19.6008 18.1405L14.8791 22.8622L14.8791 20.4722C14.8791 20.012 14.506 19.6389 14.0457 19.6389C13.5855 19.6389 13.2124 20.012 13.2124 20.4722L13.2124 23.8365C13.2124 24.8698 14.05 25.7074 15.0833 25.7074L18.4476 25.7074C18.9078 25.7074 19.2809 25.3343 19.2809 24.8741C19.2809 24.4138 18.9078 24.0407 18.4476 24.0407Z"></path>
</svg>
