<svg width="36" height="36" viewBox="0 0 36 36" fill="none" xmlns="http://www.w3.org/2000/svg">
<rect width="36" height="36" fill="#F1EFFF"></rect>
<path fill-rule="evenodd" clip-rule="evenodd" d="M17.1873 9.89848C17.714 9.71743 18.286 9.71743 18.8127 9.89848L23.8127 11.6172C24.8222 11.9642 25.5 12.914 25.5 13.9814V17.9273C25.5 20.2662 24.5426 21.9518 23.1563 23.2643C21.8459 24.5048 20.1293 25.4305 18.5266 26.2947C18.4828 26.3183 18.4392 26.3418 18.3957 26.3653C18.1487 26.4985 17.8513 26.4985 17.6043 26.3653C17.5608 26.3418 17.5172 26.3183 17.4734 26.2947C15.8707 25.4305 14.1541 24.5048 12.8437 23.2643C11.4574 21.9518 10.5 20.2662 10.5 17.9273V13.9814C10.5 12.914 11.1778 11.9642 12.1873 11.6172L17.1873 9.89848ZM18.2709 11.4746C18.0953 11.4143 17.9047 11.4143 17.7291 11.4746L12.7291 13.1934C12.3926 13.309 12.1667 13.6256 12.1667 13.9814V17.9273C12.1667 19.732 12.8759 20.9996 13.9896 22.054C15.053 23.0608 16.4602 23.8518 18 24.6849C19.5398 23.8518 20.947 23.0608 22.0104 22.054C23.1241 20.9996 23.8333 19.732 23.8333 17.9273V13.9814C23.8333 13.6256 23.6074 13.309 23.2709 13.1934L18.2709 11.4746ZM20.6726 15.5361C20.998 15.8615 20.998 16.3891 20.6726 16.7146L17.7559 19.6312C17.4305 19.9567 16.9029 19.9567 16.5774 19.6312L15.3274 18.3812C15.002 18.0558 15.002 17.5282 15.3274 17.2027C15.6528 16.8773 16.1805 16.8773 16.5059 17.2027L17.1667 17.8635L19.4941 15.5361C19.8195 15.2106 20.3472 15.2106 20.6726 15.5361Z" fill="#2B1463"></path>
</svg>
