<svg xmlns="http://www.w3.org/2000/svg" fill="none" viewBox="0 0 36 36" height="36" width="36">
<path fill="#F1EFFF" d="M0 6C0 2.68629 2.68629 0 6 0H30C33.3137 0 36 2.68629 36 6V30C36 33.3137 33.3137 36 30 36H6C2.68629 36 0 33.3137 0 30V6Z"></path>
<path fill="#2B1463" d="M13.625 12.7917C13.625 11.411 14.7442 10.2917 16.125 10.2917H23.2083C24.589 10.2917 25.7083 11.411 25.7083 12.7917V19.8834C25.7083 21.2641 24.589 22.3834 23.2083 22.3834H22.375V23.2084C22.375 24.5891 21.2557 25.7084 19.875 25.7084H12.7916C11.4109 25.7084 10.2916 24.5891 10.2916 23.2084V16.1251C10.2916 14.7444 11.4109 13.6251 12.7916 13.6251H13.625V12.7917ZM12.7916 15.2917C12.3314 15.2917 11.9583 15.6648 11.9583 16.1251V23.2084C11.9583 23.6687 12.3314 24.0417 12.7916 24.0417H19.875C20.3352 24.0417 20.7083 23.6687 20.7083 23.2084V16.1251C20.7083 15.6648 20.3352 15.2917 19.875 15.2917H12.7916ZM22.375 20.7167V16.1251C22.375 14.7444 21.2557 13.6251 19.875 13.6251H15.2916V12.7917C15.2916 12.3315 15.6647 11.9584 16.125 11.9584H23.2083C23.6685 11.9584 24.0416 12.3315 24.0416 12.7917V19.8834C24.0416 20.3437 23.6685 20.7167 23.2083 20.7167H22.375Z" clip-rule="evenodd" fill-rule="evenodd"></path>
</svg>
