<svg xmlns="http://www.w3.org/2000/svg" fill="none" viewBox="0 0 36 36" height="36" width="36">
<path fill="#F1EFFF" d="M0 6C0 2.68629 2.68629 0 6 0H30C33.3137 0 36 2.68629 36 6V30C36 33.3137 33.3137 36 30 36H6C2.68629 36 0 33.3137 0 30V6Z"></path>
<path fill="#2B1463" d="M16.7229 10.2487C17.3974 9.47243 18.6027 9.47242 19.2772 10.2487L20.4091 11.5514C20.4148 11.558 20.4235 11.5612 20.4322 11.5598L22.1366 11.2895C23.1523 11.1283 24.0757 11.9031 24.0934 12.9314L24.1231 14.6569C24.1232 14.6656 24.1279 14.6736 24.1353 14.6781L25.6148 15.5666C26.4964 16.096 26.7058 17.2831 26.0584 18.0822L24.972 19.4231C24.9665 19.4298 24.9649 19.439 24.9677 19.4472L25.53 21.0788C25.865 22.0511 25.2623 23.095 24.2528 23.291L22.5587 23.6198C22.5501 23.6215 22.543 23.6275 22.5399 23.6356L21.9218 25.2469C21.5535 26.2071 20.4208 26.6193 19.5215 26.1205L18.0123 25.2835C18.0047 25.2793 17.9954 25.2793 17.9878 25.2835L16.4786 26.1205C15.5793 26.6193 14.4466 26.2071 14.0783 25.2469L13.4602 23.6356C13.4571 23.6275 13.45 23.6215 13.4414 23.6198L11.7473 23.291C10.7377 23.095 10.1351 22.0511 10.4701 21.0788L11.0324 19.4472C11.0352 19.439 11.0336 19.4298 11.0281 19.4231L9.94173 18.0822C9.29434 17.2831 9.50365 16.096 10.3853 15.5666L11.8648 14.6781C11.8722 14.6736 11.8769 14.6656 11.877 14.6569L11.9067 12.9314C11.9244 11.9031 12.8478 11.1283 13.8635 11.2895L15.5679 11.5598C15.5765 11.5612 15.5853 11.558 15.591 11.5514L16.7229 10.2487ZM17.9891 11.3352C17.9876 11.3359 17.985 11.3372 17.981 11.3419L16.8491 12.6446C16.4662 13.0852 15.8833 13.2974 15.3068 13.2059L13.6024 12.9355C13.5963 12.9346 13.5935 12.9352 13.5919 12.9357C13.5894 12.9364 13.5859 12.938 13.5822 12.9411C13.5785 12.9443 13.5762 12.9475 13.5751 12.9498C13.5744 12.9513 13.5733 12.9539 13.5731 12.9601L13.5434 14.6856C13.5334 15.2692 13.2232 15.8064 12.7228 16.1069L11.2433 16.9954C11.238 16.9986 11.2363 17.0009 11.2354 17.0023C11.234 17.0044 11.2323 17.0079 11.2315 17.0127C11.2306 17.0174 11.231 17.0213 11.2316 17.0238C11.232 17.0254 11.2328 17.0282 11.2367 17.033L12.3231 18.3739C12.6905 18.8274 12.7983 19.4383 12.6081 19.9902L12.0459 21.6218C12.0438 21.6276 12.044 21.6305 12.0442 21.6321C12.0445 21.6347 12.0454 21.6385 12.0479 21.6427C12.0503 21.6468 12.0531 21.6496 12.0551 21.6511C12.0565 21.6521 12.0589 21.6537 12.0649 21.6548L13.759 21.9837C14.3321 22.095 14.8073 22.4937 15.0163 23.0387L15.6344 24.65C15.6366 24.6557 15.6386 24.6578 15.6398 24.659C15.6416 24.6608 15.6448 24.663 15.6493 24.6647C15.6539 24.6663 15.6578 24.6666 15.6603 24.6665C15.662 24.6663 15.6648 24.666 15.6703 24.663L17.1794 23.826C17.6899 23.5429 18.3102 23.5429 18.8207 23.826L20.3298 24.663C20.3353 24.666 20.3381 24.6663 20.3397 24.6665C20.3423 24.6666 20.3462 24.6663 20.3507 24.6647C20.3553 24.663 20.3585 24.6608 20.3603 24.659C20.3615 24.6578 20.3635 24.6557 20.3657 24.65L20.9838 23.0387C21.1928 22.4937 21.668 22.095 22.241 21.9837L23.9352 21.6548C23.9412 21.6537 23.9436 21.6521 23.945 21.6511C23.947 21.6496 23.9498 21.6468 23.9522 21.6427C23.9546 21.6385 23.9556 21.6347 23.9559 21.6321C23.9561 21.6305 23.9563 21.6276 23.9542 21.6218L23.392 19.9902C23.2018 19.4383 23.3095 18.8274 23.677 18.3739L24.7634 17.033C24.7673 17.0282 24.7681 17.0254 24.7685 17.0238C24.7691 17.0213 24.7695 17.0174 24.7686 17.0127C24.7678 17.0079 24.7661 17.0044 24.7647 17.0023C24.7638 17.0009 24.7621 16.9986 24.7567 16.9954L23.2773 16.1069C22.7769 15.8064 22.4667 15.2692 22.4567 14.6856L22.4269 12.9601C22.4268 12.9539 22.4257 12.9513 22.425 12.9498C22.4238 12.9475 22.4216 12.9443 22.4179 12.9411C22.4142 12.938 22.4107 12.9364 22.4082 12.9357C22.4066 12.9352 22.4038 12.9346 22.3977 12.9355L20.6933 13.2059C20.1168 13.2974 19.5338 13.0852 19.151 12.6446L18.0191 11.3419C18.0151 11.3372 18.0125 11.3359 18.011 11.3352C18.0086 11.3342 18.0049 11.3332 18 11.3332C17.9952 11.3332 17.9914 11.3342 17.9891 11.3352ZM20.6726 16.1608C20.9981 16.4862 20.9981 17.0138 20.6726 17.3393L18.0506 19.9613C17.5624 20.4495 16.771 20.4495 16.2828 19.9613L15.3275 19.0059C15.002 18.6805 15.002 18.1529 15.3275 17.8274C15.6529 17.502 16.1805 17.502 16.506 17.8274L17.1667 18.4882L19.4941 16.1608C19.8196 15.8353 20.3472 15.8353 20.6726 16.1608Z" clip-rule="evenodd" fill-rule="evenodd"></path>
</svg>
