<svg width="36" height="36" viewBox="0 0 36 36" fill="none" xmlns="http://www.w3.org/2000/svg">
<rect width="36" height="36" fill="#F1EFFF"></rect>
<path fill-rule="evenodd" clip-rule="evenodd" d="M12.167 12.9997C11.7068 12.9997 11.3337 13.3728 11.3337 13.833V15.4997H24.667V13.8328C24.667 13.3727 24.294 12.9997 23.8337 12.9997H12.167ZM24.667 17.1663H11.3337V22.1663C11.3337 22.6266 11.7068 22.9997 12.167 22.9997H23.8337C24.2939 22.9997 24.667 22.6266 24.667 22.1663V17.1663ZM9.66699 13.833C9.66699 12.4523 10.7863 11.333 12.167 11.333H23.8337C25.2142 11.333 26.3337 12.452 26.3337 13.8328V22.1663C26.3337 23.5471 25.2144 24.6663 23.8337 24.6663H12.167C10.7863 24.6663 9.66699 23.5471 9.66699 22.1663V13.833ZM13.0003 19.6663C13.0003 19.2061 13.3734 18.833 13.8337 18.833H16.3337C16.7939 18.833 17.167 19.2061 17.167 19.6663C17.167 20.1266 16.7939 20.4997 16.3337 20.4997H13.8337C13.3734 20.4997 13.0003 20.1266 13.0003 19.6663Z" fill="#2B1463"></path>
</svg>
