<svg width="36" height="36" viewBox="0 0 36 36" fill="none" xmlns="http://www.w3.org/2000/svg">
<rect width="36" height="36" fill="#F1EFFF"></rect>
<path fill-rule="evenodd" clip-rule="evenodd" d="M23.0554 10.6467C23.4347 10.9074 23.5308 11.4263 23.27 11.8055L14.1034 25.1389C13.8426 25.5181 13.3238 25.6142 12.9446 25.3534C12.5653 25.0927 12.4692 24.5739 12.73 24.1946L21.8966 10.8613C22.1574 10.482 22.6762 10.386 23.0554 10.6467Z" fill="#2B1463"></path>
<path fill-rule="evenodd" clip-rule="evenodd" d="M22.1667 20.5001C21.2462 20.5001 20.5 21.2463 20.5 22.1667C20.5 23.0872 21.2462 23.8334 22.1667 23.8334C23.0871 23.8334 23.8333 23.0872 23.8333 22.1667C23.8333 21.2463 23.0871 20.5001 22.1667 20.5001ZM18.8333 22.1667C18.8333 20.3258 20.3257 18.8334 22.1667 18.8334C24.0076 18.8334 25.5 20.3258 25.5 22.1667C25.5 24.0077 24.0076 25.5001 22.1667 25.5001C20.3257 25.5001 18.8333 24.0077 18.8333 22.1667Z" fill="#2B1463"></path>
<path fill-rule="evenodd" clip-rule="evenodd" d="M13.8333 12.1667C12.9129 12.1667 12.1667 12.9129 12.1667 13.8334C12.1667 14.7539 12.9129 15.5001 13.8333 15.5001C14.7538 15.5001 15.5 14.7539 15.5 13.8334C15.5 12.9129 14.7538 12.1667 13.8333 12.1667ZM10.5 13.8334C10.5 11.9925 11.9924 10.5001 13.8333 10.5001C15.6743 10.5001 17.1667 11.9925 17.1667 13.8334C17.1667 15.6744 15.6743 17.1667 13.8333 17.1667C11.9924 17.1667 10.5 15.6744 10.5 13.8334Z" fill="#2B1463"></path>
</svg>
