<svg xmlns="http://www.w3.org/2000/svg" fill="none" viewBox="0 0 36 36" height="36" width="36">
<path fill="#F1EFFF" d="M0 6C0 2.68629 2.68629 0 6 0H30C33.3137 0 36 2.68629 36 6V30C36 33.3137 33.3137 36 30 36H6C2.68629 36 0 33.3137 0 30V6Z"></path>
<path fill="#2B1463" d="M14.006 14.0775C14.3314 14.4029 14.3314 14.9305 14.006 15.256L12.0952 17.1667H23.9049L21.9941 15.256C21.6687 14.9305 21.6687 14.4029 21.9941 14.0775C22.3196 13.752 22.8472 13.752 23.1726 14.0775L25.9167 16.8215C26.5676 17.4724 26.5676 18.5277 25.9167 19.1786L23.1726 21.9226C22.8472 22.2481 22.3196 22.2481 21.9941 21.9226C21.6687 21.5972 21.6687 21.0696 21.9941 20.7441L23.9049 18.8334H12.0952L14.006 20.7441C14.3314 21.0696 14.3314 21.5972 14.006 21.9226C13.6805 22.2481 13.1529 22.2481 12.8274 21.9226L10.0834 19.1786C9.4325 18.5277 9.4325 17.4724 10.0834 16.8215L12.8274 14.0775C13.1529 13.752 13.6805 13.752 14.006 14.0775Z" clip-rule="evenodd" fill-rule="evenodd"></path>
</svg>
