<svg xmlns="http://www.w3.org/2000/svg" fill="none" viewBox="0 0 37 36" height="36" width="37">
<path style="fill:#F1EFFF;fill:color(display-p3 0.9451 0.9373 1.0000);fill-opacity:1;" fill="#F1EFFF" d="M0.5 6C0.5 2.68629 3.18629 0 6.5 0H30.5C33.8137 0 36.5 2.68629 36.5 6V30C36.5 33.3137 33.8137 36 30.5 36H6.5C3.18629 36 0.5 33.3137 0.5 30V6Z"></path>
<path style="fill:#2B1463;fill:color(display-p3 0.1686 0.0784 0.3882);fill-opacity:1;" fill="#2B1463" d="M21.9574 9.91043C21.9643 9.91238 21.9711 9.91428 21.9776 9.91613C24.2042 10.5434 25.9567 12.2959 26.584 14.5225C26.5858 14.5291 26.5878 14.5358 26.5897 14.5427C26.6161 14.636 26.6513 14.7608 26.6708 14.8778C26.6957 15.0271 26.7058 15.216 26.6451 15.4279C26.5615 15.7197 26.3588 15.9873 26.1006 16.1469C25.9021 16.2696 25.7055 16.3071 25.5601 16.3217C25.4396 16.3338 25.3039 16.3337 25.1942 16.3336C25.1867 16.3336 25.1792 16.3336 25.172 16.3336H21.6665C21.6602 16.3336 21.6537 16.3336 21.6472 16.3336C21.548 16.3337 21.4294 16.3337 21.325 16.3252C21.204 16.3153 21.0306 16.2899 20.849 16.1974C20.6138 16.0775 20.4226 15.8863 20.3027 15.6511C20.2102 15.4695 20.1848 15.2962 20.1749 15.1752C20.1664 15.0707 20.1665 14.9522 20.1665 14.8529C20.1665 14.8464 20.1665 14.84 20.1665 14.8336V11.3282C20.1665 11.3209 20.1665 11.3135 20.1665 11.3059C20.1664 11.1963 20.1664 11.0605 20.1784 10.94C20.193 10.7946 20.2305 10.5981 20.3532 10.3995C20.5128 10.1413 20.7805 9.93865 21.0722 9.85506C21.2842 9.79434 21.4731 9.80444 21.6223 9.82931C21.7393 9.8488 21.8641 9.88407 21.9574 9.91043ZM21.8332 11.6179V14.667H24.8822C24.3802 13.2467 23.2534 12.1199 21.8332 11.6179ZM16.8332 13.059C14.0063 13.4634 11.8332 15.8946 11.8332 18.8333C11.8332 22.055 14.4448 24.6666 17.6665 24.6666C20.6052 24.6666 23.0364 22.4935 23.4408 19.6666L19.6364 19.6666C19.3122 19.6666 19.0204 19.6667 18.7776 19.6468C18.5177 19.6256 18.2414 19.5775 17.9707 19.4396C17.5787 19.2398 17.26 18.9211 17.0602 18.5291C16.9223 18.2584 16.8742 17.9821 16.853 17.7222C16.8331 17.4794 16.8332 17.1876 16.8332 16.8634L16.8332 13.059ZM10.1665 18.8333C10.1665 14.6912 13.5244 11.3333 17.6665 11.3333C18.1267 11.3333 18.4998 11.7064 18.4998 12.1666V16.8333C18.4998 17.1971 18.5005 17.4198 18.5141 17.5864C18.5204 17.6641 18.5284 17.711 18.5351 17.7395C18.5383 17.7531 18.541 17.7615 18.5426 17.766C18.5442 17.7703 18.5451 17.7721 18.5453 17.7725C18.5852 17.8509 18.6489 17.9146 18.7273 17.9545C18.7277 17.9547 18.7295 17.9556 18.7338 17.9572C18.7383 17.9588 18.7467 17.9615 18.7603 17.9647C18.7888 17.9714 18.8357 17.9794 18.9134 17.9857C19.08 17.9993 19.3027 18 19.6665 18H24.3332C24.7934 18 25.1665 18.3731 25.1665 18.8333C25.1665 22.9754 21.8086 26.3333 17.6665 26.3333C13.5244 26.3333 10.1665 22.9754 10.1665 18.8333Z" clip-rule="evenodd" fill-rule="evenodd"></path>
</svg>
